STARTFONT 2.1
FONT serif12.bits
SIZE 13 75 75
FONTBOUNDINGBOX 11 14 0 0
STARTPROPERTIES 3
FONT_DESCENT 3
FONT_ASCENT 11
COPYRIGHT "Share and enjoy."
ENDPROPERTIES
CHARS 125
STARTCHAR C002
ENCODING 2
SWIDTH 846 0
DWIDTH 11 0
BBX 11 14 0 -3
BITMAP
0000
0400
0400
0000
0400
0400
0800
1000
1100
1100
0e00
0000
0000
0000
ENDCHAR
STARTCHAR C003
ENCODING 3
SWIDTH 846 0
DWIDTH 11 0
BBX 11 14 0 -3
BITMAP
0000
0000
0000
0000
0f00
1100
1000
1000
1000
1100
0e00
0400
0200
0c00
ENDCHAR
STARTCHAR C004
ENCODING 4
SWIDTH 846 0
DWIDTH 11 0
BBX 11 14 0 -3
BITMAP
0480
0480
0000
0000
0000
0000
0000
0000
0000
0000
0000
0000
0000
0000
ENDCHAR
STARTCHAR C005
ENCODING 5
SWIDTH 846 0
DWIDTH 11 0
BBX 11 14 0 -3
BITMAP
0200
0100
0080
0000
0000
0000
0000
0000
0000
0000
0000
0000
0000
0000
ENDCHAR
STARTCHAR C006
ENCODING 6
SWIDTH 846 0
DWIDTH 11 0
BBX 11 14 0 -3
BITMAP
0000
1dc0
2220
2200
7f80
2200
2200
2200
2200
2200
7700
0000
0000
0000
ENDCHAR
STARTCHAR C007
ENCODING 7
SWIDTH 846 0
DWIDTH 11 0
BBX 11 14 0 -3
BITMAP
0000
0400
0800
0c00
0000
0000
0000
0000
0000
0000
0000
0000
0000
0000
ENDCHAR
STARTCHAR C010
ENCODING 8
SWIDTH 846 0
DWIDTH 11 0
BBX 11 14 0 -3
BITMAP
0000
0400
0400
0000
0400
0400
0400
0400
0400
0400
0400
0000
0000
0000
ENDCHAR
STARTCHAR C011
ENCODING 9
SWIDTH 846 0
DWIDTH 11 0
BBX 11 14 0 -3
BITMAP
0000
0000
0000
0000
0000
0000
0000
0000
0000
0000
0000
0000
0000
0000
ENDCHAR
STARTCHAR C012
ENCODING 10
SWIDTH 846 0
DWIDTH 11 0
BBX 11 14 0 -3
BITMAP
0000
0000
0000
0000
0000
0000
0000
0000
0000
0000
0000
0000
0000
0000
ENDCHAR
STARTCHAR C013
ENCODING 11
SWIDTH 846 0
DWIDTH 11 0
BBX 11 14 0 -3
BITMAP
0100
0200
0400
0000
0000
0000
0000
0000
0000
0000
0000
0000
0000
0000
ENDCHAR
STARTCHAR C014
ENCODING 12
SWIDTH 846 0
DWIDTH 11 0
BBX 11 14 0 -3
BITMAP
0000
0000
0000
0000
0000
0000
0000
0000
0000
0000
0000
0000
0000
0000
ENDCHAR
STARTCHAR C015
ENCODING 13
SWIDTH 846 0
DWIDTH 11 0
BBX 11 14 0 -3
BITMAP
0000
0000
0000
0000
0000
0000
0000
0000
0000
0000
0000
0000
0000
0000
ENDCHAR
STARTCHAR C016
ENCODING 14
SWIDTH 846 0
DWIDTH 11 0
BBX 11 14 0 -3
BITMAP
0000
0780
0000
0000
0000
0000
0000
0000
0000
0000
0000
0000
0000
0000
ENDCHAR
STARTCHAR C017
ENCODING 15
SWIDTH 846 0
DWIDTH 11 0
BBX 11 14 0 -3
BITMAP
0000
0000
0000
0000
0000
0000
0000
0000
0000
0000
0000
0000
0000
0000
ENDCHAR
STARTCHAR C020
ENCODING 16
SWIDTH 846 0
DWIDTH 11 0
BBX 11 14 0 -3
BITMAP
0c80
1300
0000
0000
0000
0000
0000
0000
0000
0000
0000
0000
0000
0000
ENDCHAR
STARTCHAR C021
ENCODING 17
SWIDTH 846 0
DWIDTH 11 0
BBX 11 14 0 -3
BITMAP
0000
3680
4480
4400
ff80
4480
4480
4480
4480
4480
edc0
0000
0000
0000
ENDCHAR
STARTCHAR C022
ENCODING 18
SWIDTH 846 0
DWIDTH 11 0
BBX 11 14 0 -3
BITMAP
3780
4480
4480
ff80
4480
4480
4480
4480
4480
4480
ffc0
0000
0000
0000
ENDCHAR
STARTCHAR C023
ENCODING 19
SWIDTH 846 0
DWIDTH 11 0
BBX 11 14 0 -3
BITMAP
0000
0000
0000
0000
0000
0000
ffe0
0000
0000
0000
0000
0000
0000
0000
ENDCHAR
STARTCHAR C024
ENCODING 20
SWIDTH 846 0
DWIDTH 11 0
BBX 11 14 0 -3
BITMAP
0000
0d00
1100
1000
3f00
1100
1100
1100
1100
1100
3b80
0000
0000
0000
ENDCHAR
STARTCHAR C025
ENCODING 21
SWIDTH 846 0
DWIDTH 11 0
BBX 11 14 0 -3
BITMAP
0f00
1100
1100
3f00
1100
1100
1100
1100
1100
1100
3b80
0000
0000
0000
ENDCHAR
STARTCHAR C026
ENCODING 22
SWIDTH 846 0
DWIDTH 11 0
BBX 11 14 0 -3
BITMAP
0000
0000
0000
0000
0000
0000
7f80
0000
0000
0000
0000
0000
0000
0000
ENDCHAR
STARTCHAR C027
ENCODING 23
SWIDTH 846 0
DWIDTH 11 0
BBX 11 14 0 -3
BITMAP
0880
0700
0000
0000
0000
0000
0000
0000
0000
0000
0000
0000
0000
0000
ENDCHAR
STARTCHAR C030
ENCODING 24
SWIDTH 846 0
DWIDTH 11 0
BBX 11 14 0 -3
BITMAP
0000
0000
0000
0000
0000
0000
3f00
0000
0000
0000
0000
0000
0000
0000
ENDCHAR
STARTCHAR C031
ENCODING 25
SWIDTH 846 0
DWIDTH 11 0
BBX 11 14 0 -3
BITMAP
0000
0000
0000
0000
0000
0000
0000
0000
0000
0000
0000
0000
0000
0000
ENDCHAR
STARTCHAR C032
ENCODING 26
SWIDTH 846 0
DWIDTH 11 0
BBX 11 14 0 -3
BITMAP
0000
0000
0000
0000
0000
0000
0000
0000
0000
0000
0000
0000
0000
0000
ENDCHAR
STARTCHAR C033
ENCODING 27
SWIDTH 846 0
DWIDTH 11 0
BBX 11 14 0 -3
BITMAP
0000
0000
0000
0000
0000
0000
0000
0000
0000
0000
0000
0000
0000
0000
ENDCHAR
STARTCHAR C034
ENCODING 28
SWIDTH 846 0
DWIDTH 11 0
BBX 11 14 0 -3
BITMAP
0000
0000
0000
0000
0000
0000
0000
0000
0000
0000
0000
0000
0000
0000
ENDCHAR
STARTCHAR C035
ENCODING 29
SWIDTH 846 0
DWIDTH 11 0
BBX 11 14 0 -3
BITMAP
0000
0000
0000
0000
0000
0000
0000
0000
0000
0000
0000
0000
0100
0100
ENDCHAR
STARTCHAR C036
ENCODING 30
SWIDTH 846 0
DWIDTH 11 0
BBX 11 14 0 -3
BITMAP
0c80
1300
0000
0000
0000
0000
0000
0000
0000
0000
0000
0000
0000
0000
ENDCHAR
STARTCHAR C037
ENCODING 31
SWIDTH 846 0
DWIDTH 11 0
BBX 11 14 0 -3
BITMAP
0300
0480
0300
0000
0000
0000
0000
0000
0000
0000
0000
0000
0000
0000
ENDCHAR
STARTCHAR C040
ENCODING 32
SWIDTH 846 0
DWIDTH 11 0
BBX 11 14 0 -3
BITMAP
0000
0000
0000
0000
0000
0000
0000
0000
0000
0000
0000
0000
0000
0000
ENDCHAR
STARTCHAR !
ENCODING 33
SWIDTH 846 0
DWIDTH 11 0
BBX 11 14 0 -3
BITMAP
0000
0400
0400
0400
0400
0400
0400
0400
0000
0400
0400
0000
0000
0000
ENDCHAR
STARTCHAR "
ENCODING 34
SWIDTH 846 0
DWIDTH 11 0
BBX 11 14 0 -3
BITMAP
0000
0a00
0a00
0a00
0a00
0000
0000
0000
0000
0000
0000
0000
0000
0000
ENDCHAR
STARTCHAR #
ENCODING 35
SWIDTH 846 0
DWIDTH 11 0
BBX 11 14 0 -3
BITMAP
0000
0480
0480
3fc0
0900
0900
1200
1200
7f80
2400
2400
0000
0000
0000
ENDCHAR
STARTCHAR $
ENCODING 36
SWIDTH 846 0
DWIDTH 11 0
BBX 11 14 0 -3
BITMAP
0400
0e00
1500
1400
1400
0c00
0600
0500
0500
1500
0e00
0400
0000
0000
ENDCHAR
STARTCHAR %
ENCODING 37
SWIDTH 846 0
DWIDTH 11 0
BBX 11 14 0 -3
BITMAP
0000
3600
4e00
8c00
8c00
9580
6640
0c40
0c40
1480
1300
0000
0000
0000
ENDCHAR
STARTCHAR &
ENCODING 38
SWIDTH 846 0
DWIDTH 11 0
BBX 11 14 0 -3
BITMAP
0000
0c00
1200
1200
0c00
19c0
2880
4500
4200
4300
3cc0
0000
0000
0000
ENDCHAR
STARTCHAR '
ENCODING 39
SWIDTH 846 0
DWIDTH 11 0
BBX 11 14 0 -3
BITMAP
0000
0c00
0400
0800
0000
0000
0000
0000
0000
0000
0000
0000
0000
0000
ENDCHAR
STARTCHAR (
ENCODING 40
SWIDTH 846 0
DWIDTH 11 0
BBX 11 14 0 -3
BITMAP
0000
0200
0400
0800
0800
1000
1000
1000
1000
1000
0800
0800
0400
0200
ENDCHAR
STARTCHAR )
ENCODING 41
SWIDTH 846 0
DWIDTH 11 0
BBX 11 14 0 -3
BITMAP
0000
1000
0800
0400
0400
0200
0200
0200
0200
0200
0400
0400
0800
1000
ENDCHAR
STARTCHAR *
ENCODING 42
SWIDTH 846 0
DWIDTH 11 0
BBX 11 14 0 -3
BITMAP
0400
1500
0e00
1500
0400
0000
0000
0000
0000
0000
0000
0000
0000
0000
ENDCHAR
STARTCHAR +
ENCODING 43
SWIDTH 846 0
DWIDTH 11 0
BBX 11 14 0 -3
BITMAP
0000
0000
0000
0400
0400
0400
3f80
0400
0400
0400
0000
0000
0000
0000
ENDCHAR
STARTCHAR ,
ENCODING 44
SWIDTH 846 0
DWIDTH 11 0
BBX 11 14 0 -3
BITMAP
0000
0000
0000
0000
0000
0000
0000
0000
0000
0c00
0400
0400
0800
0000
ENDCHAR
STARTCHAR -
ENCODING 45
SWIDTH 846 0
DWIDTH 11 0
BBX 11 14 0 -3
BITMAP
0000
0000
0000
0000
0000
0000
1f00
0000
0000
0000
0000
0000
0000
0000
ENDCHAR
STARTCHAR .
ENCODING 46
SWIDTH 846 0
DWIDTH 11 0
BBX 11 14 0 -3
BITMAP
0000
0000
0000
0000
0000
0000
0000
0000
0000
0400
0400
0000
0000
0000
ENDCHAR
STARTCHAR /
ENCODING 47
SWIDTH 846 0
DWIDTH 11 0
BBX 11 14 0 -3
BITMAP
0000
0100
0100
0200
0200
0400
0400
0800
0800
1000
1000
0000
0000
0000
ENDCHAR
STARTCHAR 0
ENCODING 48
SWIDTH 846 0
DWIDTH 11 0
BBX 11 14 0 -3
BITMAP
0000
0c00
1200
1200
2100
2100
2100
2100
1200
1200
0c00
0000
0000
0000
ENDCHAR
STARTCHAR 1
ENCODING 49
SWIDTH 846 0
DWIDTH 11 0
BBX 11 14 0 -3
BITMAP
0000
0400
0c00
1400
0400
0400
0400
0400
0400
0400
0e00
0000
0000
0000
ENDCHAR
STARTCHAR 2
ENCODING 50
SWIDTH 846 0
DWIDTH 11 0
BBX 11 14 0 -3
BITMAP
0000
1c00
2200
2200
0200
0200
0400
0400
0800
1100
3e00
0000
0000
0000
ENDCHAR
STARTCHAR 3
ENCODING 51
SWIDTH 846 0
DWIDTH 11 0
BBX 11 14 0 -3
BITMAP
0000
0c00
1200
0200
0400
0e00
0100
0100
0100
2200
1c00
0000
0000
0000
ENDCHAR
STARTCHAR 4
ENCODING 52
SWIDTH 846 0
DWIDTH 11 0
BBX 11 14 0 -3
BITMAP
0000
0600
0600
0a00
0a00
1200
1200
2200
3f00
0200
0200
0000
0000
0000
ENDCHAR
STARTCHAR 5
ENCODING 53
SWIDTH 846 0
DWIDTH 11 0
BBX 11 14 0 -3
BITMAP
0000
0e00
1000
1000
3c00
0200
0100
0100
0100
2200
1c00
0000
0000
0000
ENDCHAR
STARTCHAR 6
ENCODING 54
SWIDTH 846 0
DWIDTH 11 0
BBX 11 14 0 -3
BITMAP
0000
0600
0800
1000
1c00
2200
2100
2100
2100
1200
0c00
0000
0000
0000
ENDCHAR
STARTCHAR 7
ENCODING 55
SWIDTH 846 0
DWIDTH 11 0
BBX 11 14 0 -3
BITMAP
0000
1f00
2100
0100
0200
0200
0400
0400
0400
0800
0800
0000
0000
0000
ENDCHAR
STARTCHAR 8
ENCODING 56
SWIDTH 846 0
DWIDTH 11 0
BBX 11 14 0 -3
BITMAP
0000
0c00
1200
1200
1200
0c00
1200
2100
2100
2100
1e00
0000
0000
0000
ENDCHAR
STARTCHAR 9
ENCODING 57
SWIDTH 846 0
DWIDTH 11 0
BBX 11 14 0 -3
BITMAP
0000
0c00
1200
2100
2100
2100
1300
0d00
0100
0200
1c00
0000
0000
0000
ENDCHAR
STARTCHAR :
ENCODING 58
SWIDTH 846 0
DWIDTH 11 0
BBX 11 14 0 -3
BITMAP
0000
0000
0000
0000
0400
0400
0000
0000
0000
0400
0400
0000
0000
0000
ENDCHAR
STARTCHAR ;
ENCODING 59
SWIDTH 846 0
DWIDTH 11 0
BBX 11 14 0 -3
BITMAP
0000
0000
0000
0000
0400
0400
0000
0000
0000
0c00
0400
0400
0800
0000
ENDCHAR
STARTCHAR <
ENCODING 60
SWIDTH 846 0
DWIDTH 11 0
BBX 11 14 0 -3
BITMAP
0000
0100
0200
0400
0800
1000
1000
0800
0400
0200
0100
0000
0000
0000
ENDCHAR
STARTCHAR =
ENCODING 61
SWIDTH 846 0
DWIDTH 11 0
BBX 11 14 0 -3
BITMAP
0000
0000
0000
0000
0000
0000
1f00
0000
1f00
0000
0000
0000
0000
0000
ENDCHAR
STARTCHAR >
ENCODING 62
SWIDTH 846 0
DWIDTH 11 0
BBX 11 14 0 -3
BITMAP
0000
1000
0800
0400
0200
0100
0100
0200
0400
0800
1000
0000
0000
0000
ENDCHAR
STARTCHAR ?
ENCODING 63
SWIDTH 846 0
DWIDTH 11 0
BBX 11 14 0 -3
BITMAP
0000
0e00
1100
1900
0100
0200
0400
0400
0000
0400
0400
0000
0000
0000
ENDCHAR
STARTCHAR @
ENCODING 64
SWIDTH 846 0
DWIDTH 11 0
BBX 11 14 0 -3
BITMAP
1f00
3100
4080
4d40
9340
9140
9240
9280
5d00
4000
3080
1f00
0000
0000
ENDCHAR
STARTCHAR A
ENCODING 65
SWIDTH 846 0
DWIDTH 11 0
BBX 11 14 0 -3
BITMAP
0000
0400
0400
0a00
0a00
1100
1100
1f00
2080
2080
71c0
0000
0000
0000
ENDCHAR
STARTCHAR B
ENCODING 66
SWIDTH 846 0
DWIDTH 11 0
BBX 11 14 0 -3
BITMAP
0000
3e00
1100
1100
1100
1e00
1100
1080
1080
1080
3f00
0000
0000
0000
ENDCHAR
STARTCHAR C
ENCODING 67
SWIDTH 846 0
DWIDTH 11 0
BBX 11 14 0 -3
BITMAP
0000
0e80
3180
2080
4000
4000
4000
4000
2080
3080
0f00
0000
0000
0000
ENDCHAR
STARTCHAR D
ENCODING 68
SWIDTH 846 0
DWIDTH 11 0
BBX 11 14 0 -3
BITMAP
0000
7e00
2180
2080
2040
2040
2040
2040
2080
2180
7e00
0000
0000
0000
ENDCHAR
STARTCHAR E
ENCODING 69
SWIDTH 846 0
DWIDTH 11 0
BBX 11 14 0 -3
BITMAP
0000
7f00
2100
2100
2400
3c00
2400
2000
2080
2080
7f80
0000
0000
0000
ENDCHAR
STARTCHAR F
ENCODING 70
SWIDTH 846 0
DWIDTH 11 0
BBX 11 14 0 -3
BITMAP
0000
3f80
1080
1080
1200
1e00
1200
1000
1000
1000
3c00
0000
0000
0000
ENDCHAR
STARTCHAR G
ENCODING 71
SWIDTH 846 0
DWIDTH 11 0
BBX 11 14 0 -3
BITMAP
0000
1e80
6180
4080
8000
8000
83c0
8080
4080
6180
1f00
0000
0000
0000
ENDCHAR
STARTCHAR H
ENCODING 72
SWIDTH 846 0
DWIDTH 11 0
BBX 11 14 0 -3
BITMAP
0000
71c0
2080
2080
2080
3f80
2080
2080
2080
2080
71c0
0000
0000
0000
ENDCHAR
STARTCHAR I
ENCODING 73
SWIDTH 846 0
DWIDTH 11 0
BBX 11 14 0 -3
BITMAP
0000
0e00
0400
0400
0400
0400
0400
0400
0400
0400
0e00
0000
0000
0000
ENDCHAR
STARTCHAR J
ENCODING 74
SWIDTH 846 0
DWIDTH 11 0
BBX 11 14 0 -3
BITMAP
0000
0700
0200
0200
0200
0200
0200
0200
1200
1200
0c00
0000
0000
0000
ENDCHAR
STARTCHAR K
ENCODING 75
SWIDTH 846 0
DWIDTH 11 0
BBX 11 14 0 -3
BITMAP
0000
7780
2200
2400
2800
3800
2c00
2600
2300
2180
73c0
0000
0000
0000
ENDCHAR
STARTCHAR L
ENCODING 76
SWIDTH 846 0
DWIDTH 11 0
BBX 11 14 0 -3
BITMAP
0000
3800
1000
1000
1000
1000
1000
1000
1080
1080
3f80
0000
0000
0000
ENDCHAR
STARTCHAR M
ENCODING 77
SWIDTH 846 0
DWIDTH 11 0
BBX 11 14 0 -3
BITMAP
0000
e1c0
6180
5280
5280
5280
4c80
4c80
4c80
4480
e5c0
0000
0000
0000
ENDCHAR
STARTCHAR N
ENCODING 78
SWIDTH 846 0
DWIDTH 11 0
BBX 11 14 0 -3
BITMAP
0000
e1c0
6080
5080
5880
4880
4480
4680
4280
4180
e180
0000
0000
0000
ENDCHAR
STARTCHAR O
ENCODING 79
SWIDTH 846 0
DWIDTH 11 0
BBX 11 14 0 -3
BITMAP
0000
0e00
3180
2080
4040
4040
4040
4040
2080
3180
0e00
0000
0000
0000
ENDCHAR
STARTCHAR P
ENCODING 80
SWIDTH 846 0
DWIDTH 11 0
BBX 11 14 0 -3
BITMAP
0000
3f00
1080
1080
1080
1080
1f00
1000
1000
1000
3c00
0000
0000
0000
ENDCHAR
STARTCHAR Q
ENCODING 81
SWIDTH 846 0
DWIDTH 11 0
BBX 11 14 0 -3
BITMAP
0000
0e00
3180
2080
4040
4040
4040
4040
2080
3180
0e00
0400
0200
0180
ENDCHAR
STARTCHAR R
ENCODING 82
SWIDTH 846 0
DWIDTH 11 0
BBX 11 14 0 -3
BITMAP
0000
7e00
2100
2100
2100
3e00
2400
2200
2200
2100
7180
0000
0000
0000
ENDCHAR
STARTCHAR S
ENCODING 83
SWIDTH 846 0
DWIDTH 11 0
BBX 11 14 0 -3
BITMAP
0000
1a00
2600
2200
1000
0c00
0200
2100
2100
3100
2e00
0000
0000
0000
ENDCHAR
STARTCHAR T
ENCODING 84
SWIDTH 846 0
DWIDTH 11 0
BBX 11 14 0 -3
BITMAP
0000
7fc0
4440
4440
0400
0400
0400
0400
0400
0400
1f00
0000
0000
0000
ENDCHAR
STARTCHAR U
ENCODING 85
SWIDTH 846 0
DWIDTH 11 0
BBX 11 14 0 -3
BITMAP
0000
71c0
2080
2080
2080
2080
2080
2080
2080
3180
1f00
0000
0000
0000
ENDCHAR
STARTCHAR V
ENCODING 86
SWIDTH 846 0
DWIDTH 11 0
BBX 11 14 0 -3
BITMAP
0000
71c0
2080
2080
1100
1100
1100
0a00
0a00
0400
0400
0000
0000
0000
ENDCHAR
STARTCHAR W
ENCODING 87
SWIDTH 846 0
DWIDTH 11 0
BBX 11 14 0 -3
BITMAP
0000
fdc0
4880
4c80
6480
2d00
2f00
3300
1300
1100
1100
0000
0000
0000
ENDCHAR
STARTCHAR X
ENCODING 88
SWIDTH 846 0
DWIDTH 11 0
BBX 11 14 0 -3
BITMAP
0000
71c0
2080
1100
0a00
0c00
0600
0a00
1100
2080
71c0
0000
0000
0000
ENDCHAR
STARTCHAR Y
ENCODING 89
SWIDTH 846 0
DWIDTH 11 0
BBX 11 14 0 -3
BITMAP
0000
71c0
2080
1100
1100
0a00
0400
0400
0400
0400
0e00
0000
0000
0000
ENDCHAR
STARTCHAR Z
ENCODING 90
SWIDTH 846 0
DWIDTH 11 0
BBX 11 14 0 -3
BITMAP
0000
3f00
2100
2100
0200
0400
0800
1000
2080
2080
3f80
0000
0000
0000
ENDCHAR
STARTCHAR [
ENCODING 91
SWIDTH 846 0
DWIDTH 11 0
BBX 11 14 0 -3
BITMAP
1e00
1000
1000
1000
1000
1000
1000
1000
1000
1000
1000
1000
1000
1e00
ENDCHAR
STARTCHAR \
ENCODING 92
SWIDTH 846 0
DWIDTH 11 0
BBX 11 14 0 -3
BITMAP
0000
1000
1000
0800
0800
0400
0400
0200
0200
0100
0100
0000
0000
0000
ENDCHAR
STARTCHAR ]
ENCODING 93
SWIDTH 846 0
DWIDTH 11 0
BBX 11 14 0 -3
BITMAP
1e00
0200
0200
0200
0200
0200
0200
0200
0200
0200
0200
0200
0200
1e00
ENDCHAR
STARTCHAR ^
ENCODING 94
SWIDTH 846 0
DWIDTH 11 0
BBX 11 14 0 -3
BITMAP
0000
0000
0000
0400
0e00
1500
2480
0400
0400
0400
0000
0000
0000
0000
ENDCHAR
STARTCHAR _
ENCODING 95
SWIDTH 846 0
DWIDTH 11 0
BBX 11 14 0 -3
BITMAP
0000
0000
0000
0400
0800
1000
3f80
1000
0800
0400
0000
0000
0000
0000
ENDCHAR
STARTCHAR `
ENCODING 96
SWIDTH 846 0
DWIDTH 11 0
BBX 11 14 0 -3
BITMAP
0000
0400
0800
0c00
0000
0000
0000
0000
0000
0000
0000
0000
0000
0000
ENDCHAR
STARTCHAR a
ENCODING 97
SWIDTH 846 0
DWIDTH 11 0
BBX 11 14 0 -3
BITMAP
0000
0000
0000
0000
0e00
1100
0300
0d00
1100
1300
0d80
0000
0000
0000
ENDCHAR
STARTCHAR b
ENCODING 98
SWIDTH 846 0
DWIDTH 11 0
BBX 11 14 0 -3
BITMAP
0000
3000
1000
1000
1600
1900
1080
1080
1080
1100
0e00
0000
0000
0000
ENDCHAR
STARTCHAR c
ENCODING 99
SWIDTH 846 0
DWIDTH 11 0
BBX 11 14 0 -3
BITMAP
0000
0000
0000
0000
0e00
1100
2000
2000
2000
1100
0e00
0000
0000
0000
ENDCHAR
STARTCHAR d
ENCODING 100
SWIDTH 846 0
DWIDTH 11 0
BBX 11 14 0 -3
BITMAP
0000
0300
0100
0100
0d00
1300
2100
2100
2100
1300
0d80
0000
0000
0000
ENDCHAR
STARTCHAR e
ENCODING 101
SWIDTH 846 0
DWIDTH 11 0
BBX 11 14 0 -3
BITMAP
0000
0000
0000
0000
0e00
1100
2100
3f00
2000
1100
0e00
0000
0000
0000
ENDCHAR
STARTCHAR f
ENCODING 102
SWIDTH 846 0
DWIDTH 11 0
BBX 11 14 0 -3
BITMAP
0000
0600
0900
0800
1c00
0800
0800
0800
0800
0800
1c00
0000
0000
0000
ENDCHAR
STARTCHAR g
ENCODING 103
SWIDTH 846 0
DWIDTH 11 0
BBX 11 14 0 -3
BITMAP
0000
0000
0000
0000
0d00
1200
1200
1200
0c00
1000
1e00
2100
2100
1e00
ENDCHAR
STARTCHAR h
ENCODING 104
SWIDTH 846 0
DWIDTH 11 0
BBX 11 14 0 -3
BITMAP
0000
3000
1000
1000
1600
1900
1100
1100
1100
1100
3b80
0000
0000
0000
ENDCHAR
STARTCHAR i
ENCODING 105
SWIDTH 846 0
DWIDTH 11 0
BBX 11 14 0 -3
BITMAP
0000
0400
0400
0000
0c00
0400
0400
0400
0400
0400
0e00
0000
0000
0000
ENDCHAR
STARTCHAR j
ENCODING 106
SWIDTH 846 0
DWIDTH 11 0
BBX 11 14 0 -3
BITMAP
0000
0400
0400
0000
0c00
0400
0400
0400
0400
0400
0400
0400
1400
0800
ENDCHAR
STARTCHAR k
ENCODING 107
SWIDTH 846 0
DWIDTH 11 0
BBX 11 14 0 -3
BITMAP
0000
3000
1000
1000
1300
1200
1400
1c00
1200
1100
3980
0000
0000
0000
ENDCHAR
STARTCHAR l
ENCODING 108
SWIDTH 846 0
DWIDTH 11 0
BBX 11 14 0 -3
BITMAP
0000
0c00
0400
0400
0400
0400
0400
0400
0400
0400
0e00
0000
0000
0000
ENDCHAR
STARTCHAR m
ENCODING 109
SWIDTH 846 0
DWIDTH 11 0
BBX 11 14 0 -3
BITMAP
0000
0000
0000
0000
db00
6480
4480
4480
4480
4480
edc0
0000
0000
0000
ENDCHAR
STARTCHAR n
ENCODING 110
SWIDTH 846 0
DWIDTH 11 0
BBX 11 14 0 -3
BITMAP
0000
0000
0000
0000
3600
1900
1100
1100
1100
1100
3b80
0000
0000
0000
ENDCHAR
STARTCHAR o
ENCODING 111
SWIDTH 846 0
DWIDTH 11 0
BBX 11 14 0 -3
BITMAP
0000
0000
0000
0000
0c00
1200
2100
2100
2100
1200
0c00
0000
0000
0000
ENDCHAR
STARTCHAR p
ENCODING 112
SWIDTH 846 0
DWIDTH 11 0
BBX 11 14 0 -3
BITMAP
0000
0000
0000
0000
3600
1900
1080
1080
1080
1900
1600
1000
1000
3800
ENDCHAR
STARTCHAR q
ENCODING 113
SWIDTH 846 0
DWIDTH 11 0
BBX 11 14 0 -3
BITMAP
0000
0000
0000
0000
0d00
1300
2100
2100
2100
1300
0d00
0100
0100
0380
ENDCHAR
STARTCHAR r
ENCODING 114
SWIDTH 846 0
DWIDTH 11 0
BBX 11 14 0 -3
BITMAP
0000
0000
0000
0000
1e00
0a00
0800
0800
0800
0800
1c00
0000
0000
0000
ENDCHAR
STARTCHAR s
ENCODING 115
SWIDTH 846 0
DWIDTH 11 0
BBX 11 14 0 -3
BITMAP
0000
0000
0000
0000
0c00
1200
1000
0c00
0200
1200
0c00
0000
0000
0000
ENDCHAR
STARTCHAR t
ENCODING 116
SWIDTH 846 0
DWIDTH 11 0
BBX 11 14 0 -3
BITMAP
0000
0000
0400
0400
0e00
0400
0400
0400
0400
0500
0200
0000
0000
0000
ENDCHAR
STARTCHAR u
ENCODING 117
SWIDTH 846 0
DWIDTH 11 0
BBX 11 14 0 -3
BITMAP
0000
0000
0000
0000
3300
1100
1100
1100
1100
1300
0d80
0000
0000
0000
ENDCHAR
STARTCHAR v
ENCODING 118
SWIDTH 846 0
DWIDTH 11 0
BBX 11 14 0 -3
BITMAP
0000
0000
0000
0000
7700
2200
2200
1400
1400
0800
0800
0000
0000
0000
ENDCHAR
STARTCHAR w
ENCODING 119
SWIDTH 846 0
DWIDTH 11 0
BBX 11 14 0 -3
BITMAP
0000
0000
0000
0000
eee0
4440
2480
2e80
2a80
1100
1100
0000
0000
0000
ENDCHAR
STARTCHAR x
ENCODING 120
SWIDTH 846 0
DWIDTH 11 0
BBX 11 14 0 -3
BITMAP
0000
0000
0000
0000
3b80
1100
0e00
0400
0a00
1100
3b80
0000
0000
0000
ENDCHAR
STARTCHAR y
ENCODING 121
SWIDTH 846 0
DWIDTH 11 0
BBX 11 14 0 -3
BITMAP
0000
0000
0000
0000
7380
2100
1100
1200
0a00
0c00
0400
0400
2800
1800
ENDCHAR
STARTCHAR z
ENCODING 122
SWIDTH 846 0
DWIDTH 11 0
BBX 11 14 0 -3
BITMAP
0000
0000
0000
0000
1f00
1100
0200
0400
0800
1100
1f00
0000
0000
0000
ENDCHAR
STARTCHAR {
ENCODING 123
SWIDTH 846 0
DWIDTH 11 0
BBX 11 14 0 -3
BITMAP
0300
0400
0400
0400
0400
0400
1800
0400
0400
0400
0400
0400
0400
0300
ENDCHAR
STARTCHAR |
ENCODING 124
SWIDTH 846 0
DWIDTH 11 0
BBX 11 14 0 -3
BITMAP
0000
0400
0400
0400
0400
0400
0400
0400
0400
0400
0400
0400
0400
0000
ENDCHAR
STARTCHAR }
ENCODING 125
SWIDTH 846 0
DWIDTH 11 0
BBX 11 14 0 -3
BITMAP
1800
0400
0400
0400
0400
0400
0300
0400
0400
0400
0400
0400
0400
1800
ENDCHAR
STARTCHAR ~
ENCODING 126
SWIDTH 846 0
DWIDTH 11 0
BBX 11 14 0 -3
BITMAP
0000
0000
0000
0000
1880
2480
2300
0000
0000
0000
0000
0000
0000
0000
ENDCHAR
ENDFONT
